<?xml version="1.0" encoding="UTF-8"?>
<svg xmlns="http://www.w3.org/2000/svg" xmlns:xlink="http://www.w3.org/1999/xlink" viewBox="0 0 48 48" width="48px" height="48px">
<g id="surface51814643">
<path style=" stroke:none;fill-rule:nonzero;fill:rgb(10.196079%,73.725492%,61.176473%);fill-opacity:1;" d="M 48 24 C 48 37.253906 37.253906 48 24 48 C 10.746094 48 0 37.253906 0 24 C 0 10.746094 10.746094 0 24 0 C 37.253906 0 48 10.746094 48 24 Z M 48 24 "/>
<path style=" stroke:none;fill-rule:nonzero;fill:rgb(100%,100%,100%);fill-opacity:1;" d="M 20.75 34.449219 L 11.152344 24.847656 C 10.683594 24.378906 10.683594 23.621094 11.152344 23.152344 L 12.847656 21.453125 C 13.316406 20.984375 14.078125 20.984375 14.546875 21.453125 L 21.601562 28.507812 L 34.65625 15.453125 C 35.125 14.984375 35.882812 14.984375 36.351562 15.453125 L 38.046875 17.152344 C 38.519531 17.621094 38.519531 18.378906 38.046875 18.847656 L 22.449219 34.449219 C 21.980469 34.917969 21.21875 34.917969 20.75 34.449219 Z M 20.75 34.449219 "/>
</g>
</svg>