<?xml version="1.0" encoding="UTF-8" standalone="no"?>
<!DOCTYPE svg PUBLIC "-//W3C//DTD SVG 20010904//EN" "http://www.w3.org/TR/2001/REC-SVG-20010904/DTD/svg10.dtd">
<svg version="1.0" xmlns="http://www.w3.org/2000/svg" width="500.000000pt" height="500.000000pt" viewBox="0 0 500.000000 500.000000" preserveAspectRatio="xMidYMid meet">

<g transform="translate(0.000000,500.000000) scale(0.100000,-0.100000)" fill="#000000" stroke="none">
<path d="M3000 4934 c-101 -19 -214 -70 -269 -123 -37 -36 -99 -126 -206 -301 -27 -45 -60 -94 -72 -110 -13 -15 -23 -31 -23 -35 0 -5 -10 -22 -23 -39 -13 -17 -26 -38 -30 -46 -4 -8 -31 -53 -62 -100 -30 -47 -64 -101 -75 -120 -11 -19 -44 -72 -73 -117 -78 -123 -287 -455 -300 -478 -7 -11 -33 -52 -59 -92 -26 -39 -54 -84 -63 -100 -8 -15 -23 -40 -33 -55 -9 -14 -46 -73 -81 -130 -35 -56 -85 -134 -110 -173 -25 -38 -48 -74 -50 -80 -2 -5 -15 -24 -28 -41 -12 -17 -23 -34 -23 -37 0 -7 -39 -69 -129 -207 -55 -85 -67 -105 -108 -177 -12 -22 -29 -45 -37 -52 -9 -8 -16 -18 -16 -23 0 -9 -77 -133 -111 -178 -11 -14 -24 -36 -30 -50 -13 -30 -36 -353 -49 -695 -5 -137 -19 -405 -30 -595 -21 -371 -38 -743 -34 -749 2 -2 15 6 31 16 15 11 42 27 58 35 51 26 163 87 348 189 98 55 179 99 181 99 1 0 117 63 256 140 139 77 255 140 256 140 2 0 83 44 181 98 195 108 277 153 386 212 39 21 76 47 82 57 5 10 20 32 32 50 13 17 23 34 23 36 0 4 30 52 81 127 5 8 15 25 22 37 7 11 37 60 67 108 30 48 60 97 67 108 7 12 17 29 22 37 51 76 81 123 81 127 0 3 10 19 23 36 12 17 27 39 32 49 6 9 33 53 60 98 28 44 59 96 70 115 12 18 28 42 38 53 9 10 17 22 17 25 0 4 21 40 48 81 26 41 69 110 96 153 27 43 68 107 91 143 23 36 50 79 59 95 9 17 24 42 34 57 9 14 50 80 91 145 41 65 103 162 138 215 35 54 63 101 63 104 0 4 11 22 25 40 14 18 25 36 25 40 0 4 11 22 25 40 14 18 25 35 25 38 0 2 19 33 43 68 23 35 62 95 85 133 57 94 64 105 87 140 11 16 25 37 30 46 6 9 29 48 52 85 88 144 106 274 59 431 -31 102 -100 239 -142 278 -5 6 -26 30 -46 55 -41 53 -147 156 -200 197 -134 103 -167 123 -324 202 -221 110 -471 158 -654 125z m285 -284 c54 -12 110 -27 126 -35 15 -8 33 -15 39 -15 12 0 150 -68 196 -96 93 -58 134 -87 134 -95 0 -5 6 -9 14 -9 12 0 117 -101 191 -182 86 -96 158 -289 128 -343 -9 -16 -14 -11 -39 31 -44 77 -137 194 -201 255 -92 87 -236 197 -313 238 -65 35 -195 98 -245 119 -72 29 -235 72 -277 72 -19 0 -56 3 -81 6 -46 7 -46 7 -24 24 67 52 195 62 352 30z m-159 -360 c33 -12 73 -25 89 -30 27 -6 136 -60 190 -93 100 -60 135 -83 135 -89 0 -5 6 -8 13 -8 17 0 163 -142 221 -213 73 -91 126 -210 126 -283 0 -48 -23 -104 -73 -177 -25 -36 -48 -75 -52 -86 -9 -30 -18 -26 -40 17 -66 124 -132 204 -310 371 -18 17 -124 92 -163 116 -9 6 -30 19 -46 29 -16 11 -52 30 -80 44 -28 13 -67 32 -87 42 -107 53 -336 110 -441 110 -27 0 -48 4 -48 8 0 5 14 28 30 50 17 23 30 44 30 47 0 2 15 28 34 57 38 59 89 97 144 109 69 15 264 2 328 -21z m-301 -498 c105 -35 220 -85 229 -101 4 -6 16 -11 27 -11 36 0 30 -25 -23 -107 -29 -45 -75 -116 -102 -160 -27 -43 -56 -89 -65 -103 -9 -14 -20 -33 -26 -42 -9 -15 -67 -109 -90 -147 -5 -9 -19 -30 -30 -46 -11 -17 -26 -39 -32 -50 -18 -29 -104 -170 -128 -210 -12 -18 -28 -42 -38 -53 -9 -10 -17 -22 -17 -26 0 -6 -79 -132 -131 -208 -11 -15 -19 -30 -19 -33 0 -3 -8 -18 -19 -33 -10 -15 -42 -65 -71 -112 -29 -47 -75 -118 -102 -158 -26 -41 -48 -77 -48 -81 0 -14 -56 -58 -106 -84 -28 -14 -95 -38 -150 -53 -86 -25 -116 -28 -224 -28 -80 1 -152 7 -200 18 -41 10 -96 20 -123 23 -26 3 -50 10 -53 15 -4 6 3 23 15 39 11 15 21 31 21 34 0 4 10 21 23 38 12 18 27 41 34 52 7 11 24 40 39 65 29 49 79 127 110 174 29 44 62 97 87 140 27 48 32 55 88 141 43 65 156 245 182 290 7 11 22 34 34 52 13 17 23 36 23 42 0 5 11 22 24 38 13 15 32 43 42 62 25 44 31 54 82 129 23 35 42 65 42 67 0 6 61 105 107 173 24 35 43 66 43 69 0 3 11 21 25 39 14 18 25 36 26 41 0 4 17 33 37 63 50 74 73 81 237 76 111 -3 143 -8 220 -34z m-725 -1884 c0 -24 11 -95 24 -158 21 -99 37 -147 76 -230 15 -32 63 -116 73 -129 6 -7 16 -21 22 -31 17 -30 48 -73 88 -124 l38 -49 -43 -23 c-24 -13 -74 -40 -113 -60 -38 -20 -92 -49 -120 -65 -27 -16 -70 -39 -95 -52 -25 -14 -67 -37 -95 -52 -58 -33 -120 -67 -155 -85 -14 -7 -32 -17 -40 -22 -8 -5 -33 -18 -55 -29 -22 -12 -62 -34 -90 -50 -27 -16 -70 -38 -95 -50 -25 -12 -53 -28 -62 -36 -15 -13 -19 -11 -42 25 -34 53 -98 96 -168 111 l-58 12 0 62 c0 34 5 116 10 183 5 67 14 238 20 380 5 142 13 308 16 367 l7 108 46 -7 c25 -3 87 -15 136 -25 136 -28 341 -26 465 5 52 13 113 33 135 44 62 33 75 30 75 -20z"/>
</g>
</svg>