<svg height="300px" width="300px" fill="#000000" xmlns:dc="http://purl.org/dc/elements/1.1/" xmlns:cc="http://creativecommons.org/ns#" xmlns:rdf="http://www.w3.org/1999/02/22-rdf-syntax-ns#" xmlns:svg="http://www.w3.org/2000/svg" xmlns="http://www.w3.org/2000/svg" xmlns:sodipodi="http://sodipodi.sourceforge.net/DTD/sodipodi-0.dtd" xmlns:inkscape="http://www.inkscape.org/namespaces/inkscape" viewBox="0 0 8.4666667 8.4666669" version="1.1" x="0px" y="0px"><svg:g><svg:path style="color:#000000;font-style:normal;font-variant:normal;font-weight:normal;font-stretch:normal;font-size:medium;line-height:normal;font-family:sans-serif;font-variant-ligatures:normal;font-variant-position:normal;font-variant-caps:normal;font-variant-numeric:normal;font-variant-alternates:normal;font-feature-settings:normal;text-indent:0;text-align:start;text-decoration:none;text-decoration-line:none;text-decoration-style:solid;text-decoration-color:#000000;letter-spacing:normal;word-spacing:normal;text-transform:none;writing-mode:lr-tb;direction:ltr;text-orientation:mixed;dominant-baseline:auto;baseline-shift:baseline;text-anchor:start;white-space:normal;shape-padding:0;clip-rule:nonzero;display:inline;overflow:visible;visibility:visible;opacity:1;isolation:auto;mix-blend-mode:normal;color-interpolation:sRGB;color-interpolation-filters:linearRGB;solid-color:#000000;solid-opacity:1;vector-effect:none;fill:#000000;fill-opacity:1;fill-rule:nonzero;stroke:none;stroke-width:0.52916664;stroke-linecap:round;stroke-linejoin:round;stroke-miterlimit:4;stroke-dasharray:none;stroke-dashoffset:0;stroke-opacity:1;color-rendering:auto;image-rendering:auto;shape-rendering:auto;text-rendering:auto;enable-background:accumulate" d="m 3.1866239,-1.5e-7 c -0.9547728,0 -1.7342618,0.779489 -1.7342618,1.73426195 0,0.95477 0.779489,1.734777 1.7342618,1.734777 0.9547701,0 1.734259,-0.780007 1.734259,-1.734777 C 4.9208829,0.77948885 4.141394,-1.5e-7 3.1866239,-1.5e-7 Z m -0.00103,3.91603995 c -1.2685765,0 -2.29805172,1.030075 -2.29805172,2.298567 v 0.972034 A 0.26459788,0.26459788 0 0 0 1.1521209,7.4512248 H 3.517353 c -0.09743,-0.258612 -0.1529635,-0.537229 -0.1529635,-0.828374 0,-0.932637 0.5489865,-1.743879 1.3384185,-2.13062 -0.4052728,-0.35695 -0.9348655,-0.576191 -1.5172187,-0.576191 z m 2.5497155,0.863512 c -1.0150396,0 -1.8417487,0.828257 -1.8417487,1.843299 0,1.01504 0.8267091,1.843816 1.8417487,1.843816 1.0150395,0 1.8438151,-0.828776 1.8438151,-1.843816 0,-1.015042 -0.8287756,-1.843299 -1.8438151,-1.843299 z m -0.00362,0.749827 a 0.26460984,0.26460984 0 0 1 0.2692321,0.269232 v 1.051099 a 0.26460984,0.26460984 0 0 1 -0.1328091,0.22841 L 5.3115587,7.4005808 A 0.26460984,0.26460984 0 1 1 5.0459409,6.9432458 l 0.4258124,-0.24598 v -0.898655 a 0.26460984,0.26460984 0 0 1 0.2599346,-0.269232 z"/></svg:g></svg>