<?xml version="1.0" encoding="UTF-8" standalone="no"?>
<!DOCTYPE svg PUBLIC "-//W3C//DTD SVG 20010904//EN" "http://www.w3.org/TR/2001/REC-SVG-20010904/DTD/svg10.dtd">
<svg version="1.0" xmlns="http://www.w3.org/2000/svg" width="512.000000pt" height="512.000000pt" viewBox="0 0 512.000000 512.000000" preserveAspectRatio="xMidYMid meet">

<g transform="translate(0.000000,512.000000) scale(0.100000,-0.100000)" fill="#000000" stroke="none">
<path d="M2365 5113 c-312 -21 -655 -114 -950 -258 -494 -242 -916 -668 -1156 -1170 -342 -714 -342 -1555 1 -2245 l52 -106 -156 -582 c-86 -320 -156 -593 -156 -607 0 -69 76 -145 145 -145 14 0 287 70 607 156 l582 156 103 -51 c850 -422 1902 -322 2668 254 137 103 326 283 436 416 477 574 673 1352 533 2115 -70 386 -222 738 -450 1045 -87 118 -339 379 -459 476 -488 395 -1133 590 -1800 546z m1365 -993 c78 -26 114 -49 178 -112 99 -98 146 -241 125 -379 -16 -99 -59 -184 -135 -265 l-65 -68 56 -67 c73 -87 107 -149 131 -245 37 -144 22 -301 -42 -433 -28 -58 -74 -108 -384 -421 -193 -195 -357 -365 -363 -377 -21 -40 -13 -87 22 -133 73 -96 80 -127 46 -197 -14 -30 -33 -50 -60 -63 -74 -38 -140 -21 -208 56 -118 132 -143 309 -69 472 16 35 110 136 374 402 236 239 359 370 374 400 29 56 38 162 20 225 -7 25 -26 64 -43 87 l-29 41 -777 -777 -777 -777 -417 -150 c-290 -103 -430 -149 -460 -149 -47 0 -97 26 -122 64 -40 60 -36 76 120 511 81 226 153 421 160 435 8 14 393 404 857 867 719 718 849 843 882 852 22 6 42 8 46 6 4 -2 31 21 61 51 112 115 218 163 357 164 57 0 101 -6 142 -20z" style="fill: #261e1e;"/>
<path d="M3515 3821 c-16 -10 -46 -35 -65 -55 l-34 -36 104 -105 104 -105 49 48 c72 71 86 152 36 216 -44 56 -135 74 -194 37z" style="fill: #261e1e;"/>
<path d="M2440 2845 l-715 -715 145 -145 c80 -80 149 -145 155 -145 5 0 331 321 723 713 l712 712 -148 148 c-81 81 -149 147 -152 147 -3 0 -327 -322 -720 -715z" style="fill: #261e1e;"/>
<path d="M1528 1723 c-25 -71 -42 -129 -38 -131 5 -2 169 54 243 83 16 7 6 20 -64 91 -46 46 -86 84 -89 84 -3 0 -26 -57 -52 -127z" style="fill: #261e1e;"/>
</g>
</svg>