<?xml version="1.0" encoding="UTF-8" standalone="no"?>
<!DOCTYPE svg PUBLIC "-//W3C//DTD SVG 20010904//EN" "http://www.w3.org/TR/2001/REC-SVG-20010904/DTD/svg10.dtd">
<svg version="1.0" xmlns="http://www.w3.org/2000/svg" width="512.000000pt" height="512.000000pt" viewBox="0 0 512.000000 512.000000" preserveAspectRatio="xMidYMid meet" style="/*! fill: #14fbae; */">

<g transform="translate(0.000000,512.000000) scale(0.100000,-0.100000)" fill="#000000" stroke="none" style="">
<path d="M982 5100 c-109 -29 -187 -74 -272 -160 -87 -86 -131 -163 -160 -276 -19 -75 -20 -115 -20 -1261 l0 -1183 200 0 200 0 2 1183 3 1182 24 38 c13 21 42 50 64 65 l41 27 908 3 908 2 0 -389 c0 -248 4 -409 11 -443 26 -126 110 -260 215 -346 60 -49 176 -105 252 -121 34 -7 195 -11 442 -11 l390 0 0 -595 0 -595 200 0 200 0 0 738 0 737 -713 713 -712 712 -1055 -1 c-1006 0 -1058 -1 -1128 -19z m2696 -1288 c-241 -3 -277 2 -329 45 -63 53 -69 81 -69 343 l0 235 310 -310 310 -310 -222 -3z" style="fill: crimson;"/>
<path d="M2780 915 l0 -915 200 0 200 0 0 915 0 915 -200 0 -200 0 0 -915z" style="fill: crimson;"/>
<path d="M3580 915 l0 -915 200 0 200 0 0 305 0 305 240 0 240 0 0 200 0 200 -240 0 -240 0 0 210 0 210 240 0 240 0 0 200 0 200 -440 0 -440 0 0 -915z" style="fill: crimson;"/>
<path d="M1306 1804 c-286 -56 -522 -235 -647 -489 -74 -151 -93 -230 -93 -405 0 -118 5 -160 22 -225 25 -89 85 -221 132 -290 118 -172 316 -310 525 -366 114 -31 335 -32 450 -1 254 68 472 246 586 477 73 148 90 226 96 433 l6 172 -437 0 -436 0 0 -200 0 -200 216 0 215 0 -27 -51 c-38 -69 -148 -171 -226 -207 -203 -96 -414 -58 -574 102 -159 159 -197 367 -104 571 103 227 380 349 614 270 40 -14 50 -14 57 -3 12 18 148 325 152 340 3 16 -80 46 -188 69 -105 22 -239 23 -339 3z" style="fill: crimson;"/>
</g>
</svg>